<!DOCTYPE svg PUBLIC "-//W3C//DTD SVG 1.1//EN" "http://www.w3.org/Graphics/SVG/1.1/DTD/svg11.dtd"><svg aria-hidden="true" xmlns="http://www.w3.org/2000/svg" xmlns:xlink="http://www.w3.org/1999/xlink"><symbol id="1" viewBox="0 0 100 100" enable-background="new 0 0 100 100" xml:space="preserve" xmlns="http://www.w3.org/2000/svg">
<path fill-rule="evenodd" clip-rule="evenodd" d="M71.997,51.999h-3.998c-1.105,0-2-0.895-2-1.999s0.895-2,2-2h3.998  c1.105,0,2,0.896,2,2S73.103,51.999,71.997,51.999z M64.142,38.688c-0.781,0.781-2.049,0.781-2.828,0  c-0.781-0.781-0.781-2.047,0-2.828l2.828-2.828c0.779-0.781,2.047-0.781,2.828,0c0.779,0.781,0.779,2.047,0,2.828L64.142,38.688z   M50.001,61.998c-6.627,0-12-5.372-12-11.998c0-6.627,5.372-11.999,12-11.999c6.627,0,11.998,5.372,11.998,11.999  C61.999,56.626,56.628,61.998,50.001,61.998z M50.001,42.001c-4.418,0-8,3.581-8,7.999c0,4.417,3.583,7.999,8,7.999  s7.998-3.582,7.998-7.999C57.999,45.582,54.419,42.001,50.001,42.001z M50.001,34.002c-1.105,0-2-0.896-2-2v-3.999  c0-1.104,0.895-2,2-2c1.104,0,2,0.896,2,2v3.999C52.001,33.106,51.104,34.002,50.001,34.002z M35.86,38.688l-2.828-2.828  c-0.781-0.781-0.781-2.047,0-2.828s2.047-0.781,2.828,0l2.828,2.828c0.781,0.781,0.781,2.047,0,2.828S36.641,39.469,35.86,38.688z   M34.002,50c0,1.104-0.896,1.999-2,1.999h-4c-1.104,0-1.999-0.895-1.999-1.999s0.896-2,1.999-2h4C33.107,48,34.002,48.896,34.002,50  z M35.86,61.312c0.781-0.78,2.047-0.78,2.828,0c0.781,0.781,0.781,2.048,0,2.828l-2.828,2.828c-0.781,0.781-2.047,0.781-2.828,0  c-0.781-0.78-0.781-2.047,0-2.828L35.86,61.312z M50.001,65.998c1.104,0,2,0.895,2,1.999v4c0,1.104-0.896,2-2,2  c-1.105,0-2-0.896-2-2v-4C48.001,66.893,48.896,65.998,50.001,65.998z M64.142,61.312l2.828,2.828c0.779,0.781,0.779,2.048,0,2.828  c-0.781,0.781-2.049,0.781-2.828,0l-2.828-2.828c-0.781-0.78-0.781-2.047,0-2.828C62.093,60.531,63.36,60.531,64.142,61.312z"/>
</symbol><symbol id="11" viewBox="0 0 100 100" enable-background="new 0 0 100 100" xml:space="preserve" xmlns="http://www.w3.org/2000/svg">
<path fill-rule="evenodd" clip-rule="evenodd" d="M69.998,65.641H30.003c-1.104,0-2-0.896-2-2c0-1.105,0.896-2,2-2h39.995  c1.104,0,2,0.895,2,2C71.998,64.744,71.103,65.641,69.998,65.641z M69.998,57.641H30.003c-1.104,0-2-0.895-2-2c0-1.104,0.896-2,2-2  h39.995c1.104,0,2,0.896,2,2C71.998,56.746,71.103,57.641,69.998,57.641z M59.999,45.643c-1.601,0-3.083,0.48-4.333,1.291  c-1.232-5.317-5.974-9.291-11.665-9.291c-6.626,0-11.998,5.373-11.998,12h-4c0-8.835,7.163-15.999,15.998-15.999  c6.004,0,11.229,3.312,13.965,8.204c0.664-0.113,1.337-0.205,2.033-0.205c5.222,0,9.652,3.342,11.301,8h-4.381  C65.535,47.253,62.958,45.643,59.999,45.643z M30.003,69.639h39.995c1.104,0,2,0.896,2,2c0,1.105-0.896,2-2,2H30.003  c-1.104,0-2-0.895-2-2C28.003,70.535,28.898,69.639,30.003,69.639z"/>
</symbol><symbol id="12" viewBox="0 0 100 100" enable-background="new 0 0 100 100" xml:space="preserve" xmlns="http://www.w3.org/2000/svg">
<path fill-rule="evenodd" clip-rule="evenodd" d="M59.999,65.64c-0.266,0-0.614,0-1,0c0-1.372-0.319-2.742-0.943-4  c0.777,0,1.451,0,1.943,0c4.418,0,7.999-3.58,7.999-7.998s-3.581-7.999-7.999-7.999c-1.6,0-3.083,0.481-4.334,1.29  c-1.231-5.316-5.973-9.289-11.664-9.289c-6.627,0-11.998,5.372-11.998,11.998c0,5.953,4.339,10.879,10.023,11.822  c-0.637,1.217-0.969,2.549-1.012,3.887c-7.406-1.399-13.012-7.895-13.012-15.709c0-8.835,7.162-15.998,15.998-15.998  c6.004,0,11.229,3.312,13.965,8.204c0.664-0.114,1.337-0.205,2.033-0.205c6.627,0,11.998,5.372,11.998,11.999  S66.626,65.64,59.999,65.64z M50.001,58.569l3.535,3.535c1.951,1.953,1.951,5.118,0,7.07c-1.953,1.953-5.119,1.953-7.07,0  c-1.953-1.952-1.953-5.117,0-7.07L50.001,58.569z"/>
</symbol><symbol id="13" viewBox="0 0 100 100" enable-background="new 0 0 100 100" xml:space="preserve" xmlns="http://www.w3.org/2000/svg">
<path fill-rule="evenodd" clip-rule="evenodd" d="M79.941,43.642h-4c-1.104,0-2-0.895-2-2c0-1.104,0.896-2,2-2h4  c1.104,0,2,0.896,2,2C81.941,42.748,81.045,43.642,79.941,43.642z M72.084,30.33c-0.781,0.781-2.047,0.781-2.828,0  c-0.781-0.78-0.781-2.047,0-2.828l2.828-2.828c0.781-0.78,2.047-0.78,2.828,0c0.781,0.781,0.781,2.048,0,2.828L72.084,30.33z   M69.137,45.937L69.137,45.937c1.75,2.084,2.805,4.77,2.805,7.704c0,5.223-3.342,9.652-7.998,11.301v-4.381  c2.389-1.383,4-3.961,4-6.92c0-4.417-3.582-7.999-8-7.999c-1.6,0-3.084,0.48-4.334,1.291c-1.23-5.317-5.973-9.29-11.664-9.29  c-6.627,0-11.998,5.372-11.998,11.998c0,3.55,1.551,6.728,4,8.925v4.916c-4.777-2.768-8-7.922-8-13.841  c0-8.835,7.162-15.997,15.998-15.997c1.572,0,3.09,0.231,4.523,0.654c2.195-2.827,5.617-4.654,9.475-4.654  c6.627,0,11.998,5.371,11.998,11.998C69.941,43.158,69.65,44.602,69.137,45.937z M57.943,33.644c-2.211,0-4.215,0.898-5.662,2.35  c2.34,1.435,4.285,3.452,5.629,5.854c0.664-0.113,1.338-0.205,2.033-0.205c2.125,0,4.119,0.559,5.85,1.527l0,0  c0.096-0.494,0.15-1.004,0.15-1.527C65.943,37.224,62.361,33.644,57.943,33.644z M57.943,25.644c-1.104,0-2-0.895-2-2v-3.999  c0-1.104,0.896-1.999,2-1.999c1.105,0,2,0.895,2,1.999v3.999C59.943,24.75,59.049,25.644,57.943,25.644z M43.803,30.33l-2.828-2.828  c-0.779-0.78-0.779-2.047,0-2.828c0.781-0.78,2.049-0.78,2.828,0l2.828,2.828c0.781,0.781,0.781,2.048,0,2.828  C45.85,31.111,44.584,31.111,43.803,30.33z M41.945,53.641c1.105,0,2,0.896,2,2v15.998c0,1.105-0.895,2-2,2c-1.104,0-2-0.895-2-2  V55.641C39.945,54.537,40.842,53.641,41.945,53.641z M49.945,57.641c1.104,0,2,0.895,2,2v15.998c0,1.104-0.896,2-2,2  c-1.105,0-2-0.896-2-2V59.641C47.945,58.535,48.84,57.641,49.945,57.641z M57.943,53.641c1.105,0,2,0.896,2,2v15.998  c0,1.105-0.895,2-2,2c-1.104,0-2-0.895-2-2V55.641C55.943,54.537,56.84,53.641,57.943,53.641z"/>
</symbol><symbol id="14" viewBox="0 0 100 100" enable-background="new 0 0 100 100" xml:space="preserve" xmlns="http://www.w3.org/2000/svg">
<path fill-rule="evenodd" clip-rule="evenodd" d="M79.996,43.642h-3.999c-1.104,0-2-0.895-2-2c0-1.104,0.896-2,2-2h3.999  c1.104,0,2,0.896,2,2C81.996,42.748,81.101,43.642,79.996,43.642z M72.14,30.33c-0.781,0.781-2.047,0.781-2.828,0  c-0.781-0.78-0.781-2.047,0-2.828l2.828-2.828c0.781-0.78,2.047-0.78,2.828,0c0.781,0.781,0.781,2.048,0,2.828L72.14,30.33z   M69.192,45.938L69.192,45.938c1.748,2.084,2.805,4.77,2.805,7.703l0,0c0,6.627-5.371,11.998-11.998,11.998c-0.266,0-0.614,0-1,0  c0-1.371-0.319-2.742-0.943-3.998c0.777,0,1.451,0,1.943,0c4.418,0,7.999-3.582,7.999-8s-3.581-7.998-7.999-7.998  c-1.601,0-3.084,0.48-4.334,1.291c-1.231-5.318-5.973-9.291-11.664-9.291c-6.627,0-11.998,5.372-11.998,11.998  c0,1.406,0.254,2.748,0.697,4h-0.005c1.437,4.053,4.987,7.104,9.331,7.824c-0.637,1.215-0.969,2.547-1.012,3.887  c-6.096-1.152-10.964-5.76-12.498-11.711h0.011c-0.33-1.279-0.524-2.615-0.524-4c0-8.834,7.162-15.997,15.998-15.997  c1.572,0,3.089,0.231,4.523,0.654c2.195-2.827,5.617-4.654,9.475-4.654c6.627,0,11.998,5.371,11.998,11.998  C69.997,43.158,69.705,44.602,69.192,45.938z M57.999,33.644c-2.213,0-4.215,0.898-5.662,2.35c2.34,1.435,4.285,3.452,5.629,5.854  c0.664-0.113,1.336-0.205,2.033-0.205c2.125,0,4.118,0.559,5.85,1.527l0,0c0.096-0.494,0.149-1.004,0.149-1.527  C65.998,37.224,62.417,33.644,57.999,33.644z M57.999,25.644c-1.104,0-2-0.895-2-2v-3.999c0-1.104,0.896-1.999,2-1.999  s2,0.895,2,1.999v3.999C59.999,24.75,59.104,25.644,57.999,25.644z M43.858,30.33l-2.828-2.828c-0.781-0.78-0.781-2.047,0-2.828  c0.781-0.78,2.047-0.78,2.828,0l2.828,2.828c0.781,0.781,0.781,2.048,0,2.828C45.905,31.111,44.64,31.111,43.858,30.33z M50,58.57  l3.535,3.535c1.952,1.951,1.952,5.117,0,7.068c-1.952,1.953-5.118,1.953-7.07,0c-1.952-1.951-1.952-5.117,0-7.068L50,58.57z"/>
</symbol><symbol id="15" viewBox="0 0 100 100" enable-background="new 0 0 100 100" xml:space="preserve" xmlns="http://www.w3.org/2000/svg">
<path fill-rule="evenodd" clip-rule="evenodd" d="M59.999,65.641c-0.28,0-0.649,0-1.062,0l3.585-4.412  c3.181-1.057,5.477-4.053,5.477-7.588c0-4.418-3.581-7.998-7.999-7.998c-1.601,0-3.083,0.48-4.333,1.29  c-1.232-5.316-5.974-9.29-11.665-9.29c-6.626,0-11.998,5.372-11.998,12c0,5.446,3.632,10.038,8.604,11.504l-1.349,3.777  c-6.52-2.021-11.255-8.098-11.255-15.282c0-8.835,7.163-15.999,15.998-15.999c6.004,0,11.229,3.312,13.965,8.204  c0.664-0.114,1.337-0.205,2.033-0.205c6.627,0,11.999,5.371,11.999,11.998S66.626,65.641,59.999,65.641z M48.001,51.641h9.998  l-5.999,10h6.999L46.001,77.639l3.6-11.998h-6.6L48.001,51.641z"/>
</symbol><symbol id="16" viewBox="0 0 100 100" enable-background="new 0 0 100 100" xml:space="preserve" xmlns="http://www.w3.org/2000/svg">
<path fill-rule="evenodd" clip-rule="evenodd" d="M59.999,65.641c-0.28,0-0.649,0-1.062,0l3.585-4.412  c3.181-1.057,5.477-4.053,5.477-7.588c0-4.418-3.581-7.998-7.999-7.998c-1.601,0-3.083,0.48-4.333,1.29  c-1.232-5.316-5.974-9.29-11.665-9.29c-6.626,0-11.998,5.372-11.998,12c0,5.446,3.632,10.038,8.604,11.504l-1.349,3.777  c-6.52-2.021-11.255-8.098-11.255-15.282c0-8.835,7.163-15.999,15.998-15.999c6.004,0,11.229,3.312,13.965,8.204  c0.664-0.114,1.337-0.205,2.033-0.205c6.627,0,11.999,5.371,11.999,11.998S66.626,65.641,59.999,65.641z M48.001,51.641h9.998  l-5.999,10h6.999L46.001,77.639l3.6-11.998h-6.6L48.001,51.641z"/>
</symbol><symbol id="17" viewBox="0 0 100 100" enable-background="new 0 0 100 100" xml:space="preserve" xmlns="http://www.w3.org/2000/svg">
<path fill-rule="evenodd" clip-rule="evenodd" d="M79.996,43.642h-3.999c-1.104,0-2-0.895-2-2c0-1.104,0.896-2,2-2h3.999  c1.104,0,2,0.896,2,2C81.996,42.748,81.101,43.642,79.996,43.642z M72.14,30.33c-0.781,0.781-2.047,0.781-2.828,0  s-0.781-2.047,0-2.828l2.828-2.828c0.781-0.781,2.047-0.781,2.828,0c0.78,0.781,0.78,2.047,0,2.828L72.14,30.33z M69.192,45.937  L69.192,45.937c1.342,1.6,2.271,3.555,2.633,5.704h-0.008c0.109,0.652,0.18,1.318,0.18,2c0,6.627-5.372,12-11.998,12  c-0.28,0-0.649,0-1.062,0l3.584-4.412c3.181-1.057,5.478-4.053,5.478-7.588c0-0.691-0.098-1.359-0.263-2l0,0  c-0.889-3.448-4.011-5.999-7.736-5.999c-1.601,0-3.083,0.48-4.334,1.291c-1.231-5.316-5.973-9.291-11.664-9.291  c-6.627,0-11.999,5.373-11.999,12c0,0.682,0.07,1.348,0.181,1.999h-0.014c0.764,4.549,4.088,8.223,8.438,9.506l-1.35,3.777  c-5.903-1.83-10.33-6.99-11.116-13.283l0,0c-0.082-0.657-0.138-1.321-0.138-1.999c0-8.836,7.162-15.999,15.998-15.999  c1.572,0,3.089,0.232,4.523,0.655c2.195-2.828,5.618-4.654,9.475-4.654c6.627,0,11.999,5.371,11.999,11.998  C69.998,43.158,69.705,44.601,69.192,45.937z M57.999,33.644c-2.212,0-4.215,0.898-5.662,2.351c2.34,1.435,4.285,3.451,5.629,5.853  c0.664-0.113,1.337-0.205,2.033-0.205c2.125,0,4.118,0.559,5.85,1.527l0,0c0.096-0.494,0.149-1.004,0.149-1.527  C65.998,37.225,62.417,33.644,57.999,33.644z M57.999,25.645c-1.104,0-2-0.896-2-2v-3.999c0-1.104,0.896-2,2-2s2,0.896,2,2v3.999  C59.999,24.749,59.104,25.645,57.999,25.645z M43.858,30.33l-2.827-2.828c-0.781-0.781-0.781-2.047,0-2.828  c0.78-0.781,2.047-0.781,2.827,0l2.828,2.828c0.781,0.781,0.781,2.047,0,2.828C45.906,31.111,44.64,31.111,43.858,30.33z M48,51.641  h9.999l-5.999,10h6.999L46.001,77.639l3.6-11.998h-6.6L48,51.641z"/>
</symbol><symbol id="18" viewBox="0 0 100 100" enable-background="new 0 0 100 100" xml:space="preserve" xmlns="http://www.w3.org/2000/svg">
<path fill-rule="evenodd" clip-rule="evenodd" d="M63.943,64.941v-4.381c2.389-1.383,4-3.961,4-6.92c0-4.417-3.582-7.999-8-7.999  c-1.6,0-3.082,0.48-4.333,1.291c-1.231-5.317-5.974-9.29-11.665-9.29c-6.626,0-11.998,5.372-11.998,11.998  c0,3.55,1.551,6.728,4,8.925v4.916c-4.777-2.768-8-7.922-8-13.841c0-8.835,7.163-15.997,15.998-15.997  c6.004,0,11.229,3.311,13.965,8.203c0.664-0.113,1.338-0.205,2.033-0.205c6.627,0,11.999,5.372,11.999,11.999  C71.942,58.863,68.601,63.293,63.943,64.941z M41.946,53.641c1.104,0,1.999,0.896,1.999,2v15.998c0,1.105-0.895,2-1.999,2  s-2-0.895-2-2V55.641C39.946,54.537,40.842,53.641,41.946,53.641z M49.945,57.641c1.104,0,2,0.895,2,2v15.998c0,1.104-0.896,2-2,2  s-2-0.896-2-2V59.641C47.945,58.535,48.841,57.641,49.945,57.641z M57.944,53.641c1.104,0,1.999,0.896,1.999,2v15.998  c0,1.105-0.895,2-1.999,2s-2-0.895-2-2V55.641C55.944,54.537,56.84,53.641,57.944,53.641z"/>
</symbol><symbol id="19" viewBox="0 0 100 100" enable-background="new 0 0 100 100" xml:space="preserve" xmlns="http://www.w3.org/2000/svg">
<path fill-rule="evenodd" clip-rule="evenodd" d="M63.943,64.941v-4.381c2.387-1.385,3.998-3.961,3.998-6.92c0-4.418-3.58-8-7.998-8  c-1.602,0-3.084,0.481-4.334,1.291c-1.232-5.316-5.973-9.29-11.664-9.29c-6.627,0-11.998,5.372-11.998,11.999  c0,3.549,1.549,6.729,3.998,8.926v4.914c-4.777-2.768-7.998-7.922-7.998-13.84c0-8.836,7.162-15.998,15.998-15.998  c6.004,0,11.229,3.312,13.965,8.203c0.664-0.113,1.336-0.205,2.033-0.205c6.627,0,11.998,5.373,11.998,12  C71.941,58.861,68.6,63.293,63.943,64.941z M41.945,53.641c1.104,0,2,0.895,2,2v3.998c0,1.105-0.896,2-2,2c-1.105,0-2-0.895-2-2  v-3.998C39.945,54.535,40.84,53.641,41.945,53.641z M41.945,65.639c1.104,0,2,0.895,2,2v3.998c0,1.105-0.896,2-2,2  c-1.105,0-2-0.895-2-2v-3.998C39.945,66.533,40.84,65.639,41.945,65.639z M49.943,57.639c1.105,0,2,0.896,2,2v4c0,1.104-0.895,2-2,2  c-1.104,0-1.998-0.896-1.998-2v-4C47.945,58.535,48.84,57.639,49.943,57.639z M49.943,69.639c1.105,0,2,0.895,2,1.998v4  c0,1.105-0.895,2-2,2c-1.104,0-1.998-0.895-1.998-2v-4C47.945,70.533,48.84,69.639,49.943,69.639z M57.943,53.641  c1.104,0,2,0.895,2,2v3.998c0,1.105-0.896,2-2,2c-1.105,0-2-0.895-2-2v-3.998C55.943,54.535,56.838,53.641,57.943,53.641z   M57.943,65.639c1.104,0,2,0.895,2,2v3.998c0,1.105-0.896,2-2,2c-1.105,0-2-0.895-2-2v-3.998  C55.943,66.533,56.838,65.639,57.943,65.639z"/>
</symbol><symbol id="2" viewBox="0 0 100 100" enable-background="new 0 0 100 100" xml:space="preserve" xmlns="http://www.w3.org/2000/svg">
<path fill-rule="evenodd" clip-rule="evenodd" d="M79.941,43.641h-4c-1.104,0-2-0.895-2-2c0-1.104,0.896-1.998,2-1.998h4  c1.104,0,2,0.895,2,1.998C81.941,42.746,81.045,43.641,79.941,43.641z M72.084,30.329c-0.781,0.781-2.047,0.781-2.828,0  c-0.781-0.78-0.781-2.047,0-2.827l2.828-2.828c0.781-0.781,2.047-0.781,2.828,0c0.781,0.78,0.781,2.047,0,2.828L72.084,30.329z   M69.137,45.936L69.137,45.936c1.749,2.086,2.806,4.77,2.806,7.705c0,6.625-5.372,11.998-11.999,11.998c-2.775,0-12.801,0-15.998,0  c-8.835,0-15.998-7.162-15.998-15.998s7.163-15.998,15.998-15.998c1.572,0,3.09,0.232,4.523,0.654  c2.195-2.827,5.618-4.654,9.475-4.654c6.627,0,11.999,5.373,11.999,11.998C69.942,43.156,69.649,44.602,69.137,45.936z   M31.947,49.641c0,6.627,5.371,11.998,11.998,11.998c3.616,0,12.979,0,15.998,0c4.418,0,7.999-3.582,7.999-7.998  c0-4.418-3.581-8-7.999-8c-1.6,0-3.083,0.482-4.333,1.291c-1.231-5.316-5.974-9.289-11.665-9.289  C37.318,37.643,31.947,43.014,31.947,49.641z M57.943,33.643c-2.212,0-4.215,0.898-5.662,2.349c2.34,1.436,4.285,3.453,5.629,5.854  c0.664-0.113,1.337-0.205,2.033-0.205c2.125,0,4.119,0.559,5.85,1.527l0,0c0.096-0.494,0.15-1.004,0.15-1.527  C65.943,37.225,62.361,33.643,57.943,33.643z M57.943,25.643c-1.104,0-1.999-0.895-1.999-1.999v-3.999c0-1.105,0.896-2,1.999-2  c1.105,0,2,0.895,2,2v3.999C59.943,24.749,59.049,25.643,57.943,25.643z M43.803,30.329l-2.827-2.827  c-0.781-0.781-0.781-2.048,0-2.828c0.78-0.781,2.047-0.781,2.827,0l2.828,2.828c0.781,0.78,0.781,2.047,0,2.827  C45.851,31.11,44.584,31.11,43.803,30.329z"/>
</symbol><symbol id="20" viewBox="0 0 100 100" enable-background="new 0 0 100 100" xml:space="preserve" xmlns="http://www.w3.org/2000/svg">
<g>
	<g>
		<path fill-rule="evenodd" clip-rule="evenodd" d="M59.943,41.642c-0.696,0-1.369,0.092-2.033,0.205    c-2.736-4.892-7.961-8.203-13.965-8.203c-8.835,0-15.998,7.162-15.998,15.997c0,5.992,3.3,11.207,8.177,13.947    c0.276-1.262,0.892-2.465,1.873-3.445l0.057-0.057c-3.644-2.061-6.106-5.963-6.106-10.445c0-6.626,5.372-11.998,11.998-11.998    c5.691,0,10.433,3.974,11.665,9.29c1.25-0.81,2.733-1.291,4.333-1.291c4.418,0,7.999,3.581,7.999,7.999    c0,3.443-2.182,6.371-5.235,7.498c0.788,1.146,1.194,2.471,1.222,3.807c4.665-1.645,8.014-6.078,8.014-11.305    C71.942,47.014,66.57,41.642,59.943,41.642z M42.945,60.85l-2.121,2.121c-1.171,1.172-1.171,3.07,0,4.242    c1.172,1.172,3.071,1.172,4.242,0c1.172-1.172,1.172-3.07,0-4.242L42.945,60.85z M49.945,68.848l-2.121,2.121    c-1.172,1.172-1.172,3.072,0,4.242c1.171,1.172,3.07,1.172,4.241,0c1.172-1.17,1.172-3.07,0-4.242L49.945,68.848z M56.944,60.85    l-2.121,2.121c-1.172,1.172-1.172,3.07,0,4.242c1.171,1.172,3.07,1.172,4.242,0c1.171-1.172,1.171-3.07,0-4.242L56.944,60.85z"/>
	</g>
</g>
</symbol><symbol id="21" viewBox="0 0 100 100" enable-background="new 0 0 100 100" xml:space="preserve" xmlns="http://www.w3.org/2000/svg">
<g>
	<g>
		<path fill-rule="evenodd" clip-rule="evenodd" d="M59.943,41.642c-0.696,0-1.369,0.092-2.033,0.205    c-2.736-4.892-7.961-8.203-13.965-8.203c-8.835,0-15.998,7.162-15.998,15.997c0,5.992,3.3,11.207,8.177,13.947    c0.276-1.262,0.892-2.465,1.873-3.445l0.057-0.057c-3.644-2.061-6.106-5.963-6.106-10.445c0-6.626,5.372-11.998,11.998-11.998    c5.691,0,10.433,3.974,11.665,9.29c1.25-0.81,2.733-1.291,4.333-1.291c4.418,0,7.999,3.581,7.999,7.999    c0,3.443-2.182,6.371-5.235,7.498c0.788,1.146,1.194,2.471,1.222,3.807c4.665-1.645,8.014-6.078,8.014-11.305    C71.942,47.014,66.57,41.642,59.943,41.642z M42.945,60.85l-2.121,2.121c-1.171,1.172-1.171,3.07,0,4.242    c1.172,1.172,3.071,1.172,4.242,0c1.172-1.172,1.172-3.07,0-4.242L42.945,60.85z M49.945,68.848l-2.121,2.121    c-1.172,1.172-1.172,3.072,0,4.242c1.171,1.172,3.07,1.172,4.241,0c1.172-1.17,1.172-3.07,0-4.242L49.945,68.848z M56.944,60.85    l-2.121,2.121c-1.172,1.172-1.172,3.07,0,4.242c1.171,1.172,3.07,1.172,4.242,0c1.171-1.172,1.171-3.07,0-4.242L56.944,60.85z"/>
	</g>
</g>
</symbol><symbol id="22" viewBox="0 0 100 100" enable-background="new 0 0 100 100" xml:space="preserve" xmlns="http://www.w3.org/2000/svg">
<path fill-rule="evenodd" clip-rule="evenodd" d="M59.659,46.733l-1.958,1.13c0.188,0.682,0.298,1.396,0.298,2.137  c0,0.742-0.109,1.456-0.298,2.138l1.958,1.13c0.956,0.553,1.284,1.775,0.731,2.732c-0.552,0.956-1.774,1.284-2.731,0.731  l-1.954-1.128c-1.003,1.02-2.277,1.766-3.705,2.134v2.262c0,1.104-0.896,2-2,2s-2-0.896-2-2v-2.262  c-1.428-0.368-2.703-1.114-3.705-2.134l-1.954,1.128c-0.957,0.553-2.18,0.225-2.731-0.731c-0.553-0.957-0.225-2.18,0.731-2.732  l1.958-1.13c-0.189-0.682-0.298-1.396-0.298-2.138c0-0.741,0.108-1.455,0.298-2.137l-1.958-1.13  c-0.956-0.553-1.284-1.775-0.731-2.732c0.552-0.956,1.774-1.284,2.731-0.731l1.954,1.128c1.002-1.02,2.277-1.766,3.705-2.134v-2.262  c0-1.104,0.896-2,2-2s2,0.896,2,2v2.262c1.428,0.368,2.702,1.114,3.705,2.134l1.954-1.128c0.957-0.553,2.18-0.225,2.731,0.731  C60.943,44.958,60.615,46.181,59.659,46.733z M50,46.001c-2.209,0-4,1.791-4,3.999c0,2.209,1.791,4,4,4s3.999-1.791,3.999-4  C53.999,47.792,52.209,46.001,50,46.001z"/>
</symbol><symbol id="23" viewBox="0 0 100 100" enable-background="new 0 0 100 100" xml:space="preserve" xmlns="http://www.w3.org/2000/svg">
<path fill-rule="evenodd" clip-rule="evenodd" d="M63.999,64.943v-4.381c2.389-1.385,3.999-3.963,3.999-6.922  c0-4.416-3.581-7.998-7.999-7.998c-1.6,0-3.083,0.48-4.333,1.291c-1.231-5.317-5.974-9.291-11.665-9.291  c-6.627,0-11.998,5.373-11.998,12c0,3.549,1.55,6.729,4,8.924v4.916c-4.777-2.768-8-7.922-8-13.84  c0-8.836,7.163-15.999,15.998-15.999c6.004,0,11.229,3.312,13.965,8.204c0.664-0.113,1.337-0.205,2.033-0.205  c6.627,0,11.999,5.373,11.999,11.998C71.998,58.863,68.655,63.293,63.999,64.943z M42.001,57.641c1.105,0,2,0.896,2,2  c0,1.105-0.895,2-2,2c-1.104,0-1.999-0.895-1.999-2C40.002,58.537,40.897,57.641,42.001,57.641z M42.001,65.641c1.105,0,2,0.895,2,2  c0,1.104-0.895,1.998-2,1.998c-1.104,0-1.999-0.895-1.999-1.998C40.002,66.535,40.897,65.641,42.001,65.641z M50.001,61.641  c1.104,0,2,0.895,2,2c0,1.104-0.896,2-2,2c-1.105,0-2-0.896-2-2C48.001,62.535,48.896,61.641,50.001,61.641z M50.001,69.639  c1.104,0,2,0.896,2,2c0,1.105-0.896,2-2,2c-1.105,0-2-0.895-2-2C48.001,70.535,48.896,69.639,50.001,69.639z M57.999,57.641  c1.105,0,2,0.896,2,2c0,1.105-0.895,2-2,2c-1.104,0-1.999-0.895-1.999-2C56,58.537,56.896,57.641,57.999,57.641z M57.999,65.641  c1.105,0,2,0.895,2,2c0,1.104-0.895,1.998-2,1.998c-1.104,0-1.999-0.895-1.999-1.998C56,66.535,56.896,65.641,57.999,65.641z"/>
</symbol><symbol id="24" viewBox="0 0 100 100" enable-background="new 0 0 100 100" xml:space="preserve" xmlns="http://www.w3.org/2000/svg">
<path fill-rule="evenodd" clip-rule="evenodd" d="M59.659,46.733l-1.958,1.13c0.188,0.682,0.298,1.396,0.298,2.137  c0,0.742-0.109,1.456-0.298,2.138l1.958,1.13c0.956,0.553,1.284,1.775,0.731,2.732c-0.552,0.956-1.774,1.284-2.731,0.731  l-1.954-1.128c-1.003,1.02-2.277,1.766-3.705,2.134v2.262c0,1.104-0.896,2-2,2s-2-0.896-2-2v-2.262  c-1.428-0.368-2.703-1.114-3.705-2.134l-1.954,1.128c-0.957,0.553-2.18,0.225-2.731-0.731c-0.553-0.957-0.225-2.18,0.731-2.732  l1.958-1.13c-0.189-0.682-0.298-1.396-0.298-2.138c0-0.741,0.108-1.455,0.298-2.137l-1.958-1.13  c-0.956-0.553-1.284-1.775-0.731-2.732c0.552-0.956,1.774-1.284,2.731-0.731l1.954,1.128c1.002-1.02,2.277-1.766,3.705-2.134v-2.262  c0-1.104,0.896-2,2-2s2,0.896,2,2v2.262c1.428,0.368,2.702,1.114,3.705,2.134l1.954-1.128c0.957-0.553,2.18-0.225,2.731,0.731  C60.943,44.958,60.615,46.181,59.659,46.733z M50,46.001c-2.209,0-4,1.791-4,3.999c0,2.209,1.791,4,4,4s3.999-1.791,3.999-4  C53.999,47.792,52.209,46.001,50,46.001z"/>
</symbol><symbol id="25" viewBox="0 0 100 100" enable-background="new 0 0 100 100" xml:space="preserve" xmlns="http://www.w3.org/2000/svg">
<path fill-rule="evenodd" clip-rule="evenodd" d="M61.998,65.461v-4.082c3.448-0.891,6-4.012,6-7.738  c0-4.417-3.582-7.999-7.999-7.999c-1.601,0-3.084,0.48-4.334,1.291c-1.231-5.317-5.973-9.291-11.664-9.291  c-6.627,0-11.999,5.373-11.999,12c0,4.438,2.417,8.305,5.999,10.379v4.445c-5.86-2.375-9.998-8.113-9.998-14.825  c0-8.835,7.162-15.999,15.998-15.999c6.004,0,11.229,3.312,13.965,8.204c0.664-0.113,1.336-0.205,2.033-0.205  c6.626,0,11.998,5.373,11.998,11.998C71.997,59.586,67.671,64.506,61.998,65.461z M43.072,59.641  c0.553-0.957,1.775-1.283,2.732-0.732L48,60.176v-2.535c0-1.104,0.896-2,2-2s2,0.896,2,2v2.535l2.195-1.268  c0.957-0.551,2.18-0.225,2.731,0.732c0.553,0.957,0.225,2.18-0.731,2.732l-2.196,1.268l2.196,1.268  c0.956,0.553,1.284,1.775,0.731,2.732c-0.552,0.955-1.774,1.283-2.731,0.73L52,67.104v2.535c0,1.105-0.896,2-2,2s-2-0.895-2-2  v-2.535l-2.195,1.268c-0.957,0.553-2.18,0.225-2.732-0.73c-0.552-0.957-0.225-2.18,0.732-2.732L46,63.641l-2.195-1.268  C42.848,61.82,42.521,60.598,43.072,59.641z M50,65.641c1.104,0,2-0.896,2-2c0-1.105-0.896-2-2-2s-2,0.895-2,2  C48,64.744,48.896,65.641,50,65.641z"/>
</symbol><symbol id="26" viewBox="0 0 100 100" enable-background="new 0 0 100 100" xml:space="preserve" xmlns="http://www.w3.org/2000/svg">
<path fill-rule="evenodd" clip-rule="evenodd" d="M63.999,64.941v-4.381c2.389-1.383,3.999-3.961,3.999-6.92  c0-4.417-3.581-7.999-7.998-7.999c-1.601,0-3.084,0.48-4.334,1.291c-1.231-5.317-5.974-9.29-11.665-9.29  c-6.626,0-11.998,5.372-11.998,11.998c0,3.55,1.55,6.728,3.999,8.925v4.916c-4.776-2.768-7.998-7.922-7.998-13.841  c0-8.835,7.162-15.997,15.997-15.997c6.004,0,11.229,3.311,13.966,8.203c0.663-0.113,1.336-0.205,2.033-0.205  c6.626,0,11.998,5.372,11.998,11.999C71.998,58.863,68.656,63.293,63.999,64.941z M42.002,65.639c-1.104,0-1-0.895-1-1.998v-8  c0-1.104-0.104-2,1-2s1,0.896,1,2v8C43.002,64.744,43.106,65.639,42.002,65.639z M42.002,69.639c1.104,0,1.999,0.896,1.999,2  c0,1.105-0.895,2-1.999,2s-2-0.895-2-2C40.002,70.535,40.897,69.639,42.002,69.639z M50.001,69.639c-1.104,0-1-0.895-1-2v-7.998  c0-1.105-0.104-2,1-2s1,0.895,1,2v7.998C51.001,68.744,51.105,69.639,50.001,69.639z M50.001,73.639c1.104,0,1.999,0.895,1.999,2  c0,1.104-0.895,2-1.999,2s-2-0.896-2-2C48.001,74.533,48.896,73.639,50.001,73.639z M58,65.639c-1.104,0-1-0.895-1-1.998v-8  c0-1.104-0.104-2,1-2s1,0.896,1,2v8C59,64.744,59.104,65.639,58,65.639z M58,69.639c1.104,0,2,0.896,2,2c0,1.105-0.896,2-2,2  s-2-0.895-2-2C56,70.535,56.896,69.639,58,69.639z"/>
</symbol><symbol id="27" viewBox="0 0 100 100" enable-background="new 0 0 100 100" xml:space="preserve" xmlns="http://www.w3.org/2000/svg">
<path fill-rule="evenodd" clip-rule="evenodd" d="M72.997,71.639c-1.104,0-1.999-0.895-1.999-2c0-1.104,0.895-2,1.999-2s2,0.896,2,2  C74.997,70.744,74.102,71.639,72.997,71.639z M63.998,64.941v-4.381c2.389-1.383,4-3.961,4-6.92c0-4.417-3.581-7.999-7.999-7.999  c-1.601,0-3.083,0.48-4.334,1.291c-1.231-5.317-5.973-9.29-11.664-9.29c-6.627,0-11.999,5.372-11.999,11.998  c0,3.55,1.551,6.728,4,8.925v4.916c-4.777-2.768-7.999-7.922-7.999-13.841c0-8.835,7.162-15.997,15.998-15.997  c6.004,0,11.229,3.311,13.965,8.203c0.664-0.113,1.337-0.205,2.033-0.205c6.626,0,11.998,5.372,11.998,11.999  C71.997,58.863,68.655,63.293,63.998,64.941z M31.003,72.639c1.104,0,1.999,0.895,1.999,2c0,1.104-0.895,2-1.999,2s-2-0.896-2-2  C29.003,73.533,29.898,72.639,31.003,72.639z M41.001,55.641c0-1.104-0.104-2,1-2s1,0.896,1,2v23.998h-2l0,0l0,0  c0-2.209-1.79-4-3.999-4v-2c1.543,0,2.937,0.6,3.999,1.557V55.641z M50,69.639c-1.104,0-1-0.895-1-2v-7.998c0-1.105-0.104-2,1-2  s1,0.895,1,2v7.998C51,68.744,51.104,69.639,50,69.639z M50,73.639c1.104,0,2,0.895,2,2c0,1.104-0.896,2-2,2s-2-0.896-2-2  C48,74.533,48.896,73.639,50,73.639z M57.999,53.641c1.104,0,1,0.896,1,2v18.016c1.823-2.434,4.723-4.018,7.999-4.018v2  c-4.418,0-7.999,3.582-7.999,8h-2c0-0.273,0.02-0.541,0.041-0.807c-0.054-0.334-0.041-0.744-0.041-1.193V55.641  C56.999,54.537,56.895,53.641,57.999,53.641z"/>
</symbol><symbol id="3" viewBox="0 0 100 100" enable-background="new 0 0 100 100" xml:space="preserve" xmlns="http://www.w3.org/2000/svg">
<path fill-rule="evenodd" clip-rule="evenodd" d="M79.941,43.641h-4c-1.104,0-2-0.895-2-2c0-1.104,0.896-1.998,2-1.998h4  c1.104,0,2,0.895,2,1.998C81.941,42.746,81.045,43.641,79.941,43.641z M72.084,30.329c-0.781,0.781-2.047,0.781-2.828,0  c-0.781-0.78-0.781-2.047,0-2.827l2.828-2.828c0.781-0.781,2.047-0.781,2.828,0c0.781,0.78,0.781,2.047,0,2.828L72.084,30.329z   M69.137,45.936L69.137,45.936c1.749,2.086,2.806,4.77,2.806,7.705c0,6.625-5.372,11.998-11.999,11.998c-2.775,0-12.801,0-15.998,0  c-8.835,0-15.998-7.162-15.998-15.998s7.163-15.998,15.998-15.998c1.572,0,3.09,0.232,4.523,0.654  c2.195-2.827,5.618-4.654,9.475-4.654c6.627,0,11.999,5.373,11.999,11.998C69.942,43.156,69.649,44.602,69.137,45.936z   M31.947,49.641c0,6.627,5.371,11.998,11.998,11.998c3.616,0,12.979,0,15.998,0c4.418,0,7.999-3.582,7.999-7.998  c0-4.418-3.581-8-7.999-8c-1.6,0-3.083,0.482-4.333,1.291c-1.231-5.316-5.974-9.289-11.665-9.289  C37.318,37.643,31.947,43.014,31.947,49.641z M57.943,33.643c-2.212,0-4.215,0.898-5.662,2.349c2.34,1.436,4.285,3.453,5.629,5.854  c0.664-0.113,1.337-0.205,2.033-0.205c2.125,0,4.119,0.559,5.85,1.527l0,0c0.096-0.494,0.15-1.004,0.15-1.527  C65.943,37.225,62.361,33.643,57.943,33.643z M57.943,25.643c-1.104,0-1.999-0.895-1.999-1.999v-3.999c0-1.105,0.896-2,1.999-2  c1.105,0,2,0.895,2,2v3.999C59.943,24.749,59.049,25.643,57.943,25.643z M43.803,30.329l-2.827-2.827  c-0.781-0.781-0.781-2.048,0-2.828c0.78-0.781,2.047-0.781,2.827,0l2.828,2.828c0.781,0.78,0.781,2.047,0,2.827  C45.851,31.11,44.584,31.11,43.803,30.329z"/>
</symbol><symbol id="30" viewBox="0 0 100 100" enable-background="new 0 0 100 100" xml:space="preserve" xmlns="http://www.w3.org/2000/svg">
<path fill-rule="evenodd" clip-rule="evenodd" d="M50,67.867c-4.418,0-8-3.582-8-8c0-2.025,0.76-3.869,2-5.279V37.871  c0-3.313,2.686-6,6-6c3.312,0,6,2.687,6,6v16.717c1.24,1.41,1.998,3.254,1.998,5.279C57.998,64.285,54.418,67.867,50,67.867z   M52,56.422v-4.291V41.87v-3.999c0-1.104-0.896-2-2-2c-1.105,0-2,0.896-2,2v3.999v10.261v4.291c-1.189,0.693-2,1.969-2,3.445  c0,2.209,1.791,4,4,4s4-1.791,4-4C54,58.391,53.189,57.115,52,56.422z M50,62.867c-1.656,0-3-1.344-3-3c0-1.305,0.838-2.402,2-2.816  V41.807v-3.937c0-0.553,0.447-1,1-1s1,0.447,1,1v3.937v15.244c1.162,0.414,2,1.512,2,2.816C53,61.523,51.656,62.867,50,62.867z"/>
</symbol><symbol id="31" viewBox="0 0 100 100" enable-background="new 0 0 100 100" xml:space="preserve" xmlns="http://www.w3.org/2000/svg">
<path fill-rule="evenodd" clip-rule="evenodd" d="M50,67.997c-4.417,0-7.999-3.581-7.999-7.999c0-2.025,0.759-3.869,2-5.278V38.001  c0-3.313,2.687-5.999,5.999-5.999c3.313,0,6,2.686,6,5.999V54.72c1.24,1.409,1.999,3.253,1.999,5.278  C57.999,64.416,54.418,67.997,50,67.997z M52,56.553v-4.292V42v-3.999c0-1.104-0.896-2-2-2s-1.999,0.896-1.999,2V42v10.261v4.292  c-1.19,0.693-2,1.969-2,3.445c0,2.209,1.791,3.999,3.999,3.999c2.209,0,4-1.79,4-3.999C54,58.521,53.19,57.246,52,56.553z   M50,62.998c-1.656,0-2.999-1.344-2.999-3s1.343-3,2.999-3c1.657,0,3,1.344,3,3S51.657,62.998,50,62.998z"/>
</symbol><symbol id="32" viewBox="0 0 100 100" enable-background="new 0 0 100 100" xml:space="preserve" xmlns="http://www.w3.org/2000/svg">
<path fill-rule="evenodd" clip-rule="evenodd" d="M65.999,52L65.999,52h-3c-1.105,0-2-0.895-2-1.999s0.895-2,2-2h3  c1.104,0,2-0.896,2-1.999c0-1.105-0.896-2-2-2c-1.105,0-2-0.896-2-2s0.895-2,2-2c0.137,0,0.271,0.014,0.402,0.041  c3.121,0.211,5.596,2.783,5.596,5.959C71.997,49.314,69.312,52,65.999,52z M55.999,48.001h-2h-6.998H34.002  c-1.104,0-1.999,0.896-1.999,2S32.898,52,34.002,52h2h3.999h3h4h3h3.998h2c3.314,0,6,2.687,6,6c0,3.176-2.475,5.748-5.596,5.959  C56.272,63.986,56.138,64,55.999,64c-1.104,0-2-0.896-2-2c0-1.105,0.896-2,2-2c1.105,0,2-0.896,2-2s-0.895-2-2-2h-2h-3.998h-3h-4h-3  h-3.999h-2c-3.313,0-5.999-2.686-5.999-5.999c0-3.175,2.475-5.747,5.596-5.959c0.131-0.026,0.266-0.04,0.403-0.04l0,0h12.999h6.998  h2c1.105,0,2-0.896,2-2s-0.895-2-2-2c-1.104,0-2-0.895-2-2c0-1.104,0.896-2,2-2c0.139,0,0.273,0.015,0.404,0.041  c3.121,0.211,5.596,2.783,5.596,5.959C61.999,45.314,59.313,48.001,55.999,48.001z"/>
</symbol><symbol id="33" viewBox="0 0 100 100" enable-background="new 0 0 100 100" xml:space="preserve" xmlns="http://www.w3.org/2000/svg">
<path fill-rule="evenodd" clip-rule="evenodd" d="M50,61.998c-6.627,0-11.999-5.372-11.999-11.998  c0-6.627,5.372-11.999,11.999-11.999c0.755,0,1.491,0.078,2.207,0.212c-0.132,0.576-0.208,1.173-0.208,1.788  c0,4.418,3.582,7.999,8,7.999c0.615,0,1.212-0.076,1.788-0.208c0.133,0.717,0.211,1.452,0.211,2.208  C61.998,56.626,56.626,61.998,50,61.998z M48.212,42.208c-3.556,0.813-6.211,3.989-6.211,7.792c0,4.417,3.581,7.999,7.999,7.999  c3.802,0,6.978-2.655,7.791-6.211C52.937,50.884,49.115,47.062,48.212,42.208z"/>
</symbol><symbol id="34" viewBox="0 0 100 100" enable-background="new 0 0 100 100" xml:space="preserve" xmlns="http://www.w3.org/2000/svg">
<path fill-rule="evenodd" clip-rule="evenodd" d="M50,61.998c-6.627,0-11.999-5.372-11.999-11.998  c0-6.627,5.372-11.999,11.999-11.999c0.755,0,1.491,0.078,2.207,0.212c-0.132,0.576-0.208,1.173-0.208,1.788  c0,4.418,3.582,7.999,8,7.999c0.615,0,1.212-0.076,1.788-0.208c0.133,0.717,0.211,1.452,0.211,2.208  C61.998,56.626,56.626,61.998,50,61.998z M48.212,42.208c-3.556,0.813-6.211,3.989-6.211,7.792c0,4.417,3.581,7.999,7.999,7.999  c3.802,0,6.978-2.655,7.791-6.211C52.937,50.884,49.115,47.062,48.212,42.208z"/>
</symbol><symbol id="35" viewBox="0 0 100 100" enable-background="new 0 0 100 100" xml:space="preserve" xmlns="http://www.w3.org/2000/svg">
<path fill-rule="evenodd" clip-rule="evenodd" d="M69.763,46.758L69.763,46.758c1.368,1.949,2.179,4.318,2.179,6.883  c0,6.625-5.371,11.998-11.998,11.998c-2.775,0-12.801,0-15.998,0c-8.836,0-15.998-7.162-15.998-15.998s7.162-15.998,15.998-15.998  c2.002,0,3.914,0.375,5.68,1.047l0,0c1.635-4.682,6.078-8.047,11.318-8.047c0.755,0,1.491,0.078,2.207,0.212  c-0.131,0.575-0.207,1.173-0.207,1.788c0,4.418,3.581,7.999,7.998,7.999c0.616,0,1.213-0.076,1.789-0.208  c0.133,0.717,0.211,1.453,0.211,2.208C72.941,41.775,71.73,44.621,69.763,46.758z M31.947,49.641  c0,6.627,5.371,11.998,11.998,11.998c3.616,0,12.979,0,15.998,0c4.418,0,7.999-3.582,7.999-7.998c0-4.418-3.581-8-7.999-8  c-1.6,0-3.083,0.482-4.334,1.291c-1.231-5.316-5.973-9.29-11.664-9.29C37.318,37.642,31.947,43.014,31.947,49.641z M51.496,35.545  c0.001,0,0.002,0,0.002,0S51.497,35.545,51.496,35.545z M59.155,30.85c-2.9,0.664-5.175,2.91-5.925,5.775l0,0  c1.918,1.372,3.523,3.152,4.68,5.22c0.664-0.113,1.337-0.205,2.033-0.205c2.618,0,5.033,0.85,7.005,2.271l0,0  c0.858-0.979,1.485-2.168,1.786-3.482C63.881,39.525,60.059,35.706,59.155,30.85z"/>
</symbol><symbol id="36" viewBox="0 0 100 100" enable-background="new 0 0 100 100" xml:space="preserve" xmlns="http://www.w3.org/2000/svg">
<path fill-rule="evenodd" clip-rule="evenodd" d="M69.763,46.758L69.763,46.758c1.368,1.949,2.179,4.318,2.179,6.883  c0,6.625-5.371,11.998-11.998,11.998c-2.775,0-12.801,0-15.998,0c-8.836,0-15.998-7.162-15.998-15.998s7.162-15.998,15.998-15.998  c2.002,0,3.914,0.375,5.68,1.047l0,0c1.635-4.682,6.078-8.047,11.318-8.047c0.755,0,1.491,0.078,2.207,0.212  c-0.131,0.575-0.207,1.173-0.207,1.788c0,4.418,3.581,7.999,7.998,7.999c0.616,0,1.213-0.076,1.789-0.208  c0.133,0.717,0.211,1.453,0.211,2.208C72.941,41.775,71.73,44.621,69.763,46.758z M31.947,49.641  c0,6.627,5.371,11.998,11.998,11.998c3.616,0,12.979,0,15.998,0c4.418,0,7.999-3.582,7.999-7.998c0-4.418-3.581-8-7.999-8  c-1.6,0-3.083,0.482-4.334,1.291c-1.231-5.316-5.973-9.29-11.664-9.29C37.318,37.642,31.947,43.014,31.947,49.641z M51.496,35.545  c0.001,0,0.002,0,0.002,0S51.497,35.545,51.496,35.545z M59.155,30.85c-2.9,0.664-5.175,2.91-5.925,5.775l0,0  c1.918,1.372,3.523,3.152,4.68,5.22c0.664-0.113,1.337-0.205,2.033-0.205c2.618,0,5.033,0.85,7.005,2.271l0,0  c0.858-0.979,1.485-2.168,1.786-3.482C63.881,39.525,60.059,35.706,59.155,30.85z"/>
</symbol><symbol id="37" viewBox="0 0 100 100" enable-background="new 0 0 100 100" xml:space="preserve" xmlns="http://www.w3.org/2000/svg">
<path fill-rule="evenodd" clip-rule="evenodd" d="M69.819,46.758L69.819,46.758c0.617,0.88,1.102,1.854,1.469,2.884h0.019l0,0H66.92  l0,0l0,0c-1.384-2.389-3.962-3.999-6.921-3.999c-1.6,0-3.082,0.48-4.333,1.29c-1.231-5.316-5.974-9.29-11.665-9.29  c-6.626,0-11.998,5.372-11.998,11.999l0,0h-4l0,0c0-8.835,7.163-15.998,15.998-15.998c2.003,0,3.914,0.376,5.68,1.048l0,0  c1.635-4.683,6.079-8.047,11.318-8.047c0.756,0,1.492,0.078,2.208,0.211c-0.132,0.576-0.208,1.173-0.208,1.789  c0,4.418,3.582,7.998,7.999,7.998c0.616,0,1.212-0.076,1.788-0.207c0.134,0.717,0.212,1.452,0.212,2.207  C72.998,41.777,71.786,44.621,69.819,46.758z M59.212,30.852c-2.9,0.663-5.175,2.91-5.924,5.774l0,0  c1.916,1.372,3.521,3.153,4.678,5.222c0.664-0.114,1.338-0.205,2.033-0.205c2.619,0,5.033,0.848,7.006,2.271l0,0  c0.858-0.98,1.485-2.169,1.785-3.482C63.937,39.527,60.115,35.706,59.212,30.852z M30.003,53.641h39.996  c1.104,0,1.999,0.896,1.999,2s-0.896,2-1.999,2H30.003c-1.104,0-2-0.896-2-2S28.899,53.641,30.003,53.641z M30.003,61.641h39.996  c1.104,0,1.999,0.895,1.999,1.999s-0.896,2-1.999,2H30.003c-1.104,0-2-0.896-2-2S28.899,61.641,30.003,61.641z M30.003,69.639  h39.996c1.104,0,1.999,0.896,1.999,2s-0.896,2-1.999,2H30.003c-1.104,0-2-0.896-2-2S28.899,69.639,30.003,69.639z"/>
</symbol><symbol id="38" viewBox="0 0 100 100" enable-background="new 0 0 100 100" xml:space="preserve" xmlns="http://www.w3.org/2000/svg">
<path fill-rule="evenodd" clip-rule="evenodd" d="M69.763,46.758L69.763,46.758c1.368,1.949,2.179,4.318,2.179,6.883  c0,6.625-5.371,11.998-11.998,11.998c-2.775,0-12.801,0-15.998,0c-8.836,0-15.998-7.162-15.998-15.998s7.162-15.998,15.998-15.998  c2.002,0,3.914,0.375,5.68,1.047l0,0c1.635-4.682,6.078-8.047,11.318-8.047c0.755,0,1.491,0.078,2.207,0.212  c-0.131,0.575-0.207,1.173-0.207,1.788c0,4.418,3.581,7.999,7.998,7.999c0.616,0,1.213-0.076,1.789-0.208  c0.133,0.717,0.211,1.453,0.211,2.208C72.941,41.775,71.73,44.621,69.763,46.758z M31.947,49.641  c0,6.627,5.371,11.998,11.998,11.998c3.616,0,12.979,0,15.998,0c4.418,0,7.999-3.582,7.999-7.998c0-4.418-3.581-8-7.999-8  c-1.6,0-3.083,0.482-4.334,1.291c-1.231-5.316-5.973-9.29-11.664-9.29C37.318,37.642,31.947,43.014,31.947,49.641z M51.496,35.545  c0.001,0,0.002,0,0.002,0S51.497,35.545,51.496,35.545z M59.155,30.85c-2.9,0.664-5.175,2.91-5.925,5.775l0,0  c1.918,1.372,3.523,3.152,4.68,5.22c0.664-0.113,1.337-0.205,2.033-0.205c2.618,0,5.033,0.85,7.005,2.271l0,0  c0.858-0.979,1.485-2.168,1.786-3.482C63.881,39.525,60.059,35.706,59.155,30.85z"/>
</symbol><symbol id="39" viewBox="0 0 100 100" enable-background="new 0 0 100 100" xml:space="preserve" xmlns="http://www.w3.org/2000/svg">
<g>
	<g>
		<path fill-rule="evenodd" clip-rule="evenodd" d="M50.001,57.641c-1.105,0-2,0.895-2,2v15.998c0,1.104,0.895,2,2,2    c1.104,0,2-0.896,2-2V59.641C52.001,58.535,51.104,57.641,50.001,57.641z M57.999,53.641c-1.104,0-1.999,0.896-1.999,2v15.998    c0,1.105,0.896,2,1.999,2c1.105,0,2-0.895,2-2V55.641C59.999,54.537,59.104,53.641,57.999,53.641z M42.001,53.641    c-1.104,0-1.999,0.896-1.999,2v15.998c0,1.105,0.896,2,1.999,2c1.105,0,2-0.895,2-2V55.641    C44.001,54.537,43.106,53.641,42.001,53.641z M72.997,38.642c0-0.754-0.078-1.49-0.211-2.207    c-0.576,0.132-1.173,0.208-1.788,0.208c-4.418,0-7.999-3.581-7.999-7.999c0-0.615,0.076-1.213,0.207-1.788    c-0.716-0.134-1.451-0.212-2.207-0.212c-5.24,0-9.684,3.365-11.318,8.047c-1.766-0.672-3.678-1.047-5.68-1.047    c-8.835,0-15.998,7.162-15.998,15.997c0,5.919,3.223,11.074,8,13.841v-4.916c-2.45-2.197-4-5.375-4-8.925    c0-6.626,5.371-11.998,11.998-11.998c5.691,0,10.434,3.973,11.665,9.29c1.25-0.811,2.733-1.291,4.333-1.291    c4.418,0,7.999,3.581,7.999,7.999c0,2.959-1.61,5.537-3.999,6.92v4.381c4.656-1.648,7.999-6.078,7.999-11.301    c0-2.562-0.811-4.933-2.18-6.882C71.786,44.621,72.997,41.777,72.997,38.642z M67.005,43.914    c-1.973-1.424-4.388-2.271-7.006-2.271c-0.696,0-1.369,0.092-2.033,0.205c-1.156-2.068-2.762-3.849-4.679-5.221    c0.75-2.865,3.024-5.111,5.924-5.775c0.904,4.855,4.726,8.676,9.579,9.58C68.489,41.746,67.862,42.933,67.005,43.914z"/>
	</g>
</g>
</symbol><symbol id="4" viewBox="0 0 100 100" enable-background="new 0 0 100 100" xml:space="preserve" xmlns="http://www.w3.org/2000/svg">
<path fill-rule="evenodd" clip-rule="evenodd" d="M79.941,43.641h-4c-1.104,0-2-0.895-2-2c0-1.104,0.896-1.998,2-1.998h4  c1.104,0,2,0.895,2,1.998C81.941,42.746,81.045,43.641,79.941,43.641z M72.084,30.329c-0.781,0.781-2.047,0.781-2.828,0  c-0.781-0.78-0.781-2.047,0-2.827l2.828-2.828c0.781-0.781,2.047-0.781,2.828,0c0.781,0.78,0.781,2.047,0,2.828L72.084,30.329z   M69.137,45.936L69.137,45.936c1.749,2.086,2.806,4.77,2.806,7.705c0,6.625-5.372,11.998-11.999,11.998c-2.775,0-12.801,0-15.998,0  c-8.835,0-15.998-7.162-15.998-15.998s7.163-15.998,15.998-15.998c1.572,0,3.09,0.232,4.523,0.654  c2.195-2.827,5.618-4.654,9.475-4.654c6.627,0,11.999,5.373,11.999,11.998C69.942,43.156,69.649,44.602,69.137,45.936z   M31.947,49.641c0,6.627,5.371,11.998,11.998,11.998c3.616,0,12.979,0,15.998,0c4.418,0,7.999-3.582,7.999-7.998  c0-4.418-3.581-8-7.999-8c-1.6,0-3.083,0.482-4.333,1.291c-1.231-5.316-5.974-9.289-11.665-9.289  C37.318,37.643,31.947,43.014,31.947,49.641z M57.943,33.643c-2.212,0-4.215,0.898-5.662,2.349c2.34,1.436,4.285,3.453,5.629,5.854  c0.664-0.113,1.337-0.205,2.033-0.205c2.125,0,4.119,0.559,5.85,1.527l0,0c0.096-0.494,0.15-1.004,0.15-1.527  C65.943,37.225,62.361,33.643,57.943,33.643z M57.943,25.643c-1.104,0-1.999-0.895-1.999-1.999v-3.999c0-1.105,0.896-2,1.999-2  c1.105,0,2,0.895,2,2v3.999C59.943,24.749,59.049,25.643,57.943,25.643z M43.803,30.329l-2.827-2.827  c-0.781-0.781-0.781-2.048,0-2.828c0.78-0.781,2.047-0.781,2.827,0l2.828,2.828c0.781,0.78,0.781,2.047,0,2.827  C45.851,31.11,44.584,31.11,43.803,30.329z"/>
</symbol><symbol id="40" viewBox="0 0 100 100" enable-background="new 0 0 100 100" xml:space="preserve" xmlns="http://www.w3.org/2000/svg">
<g>
	<g>
		<path fill-rule="evenodd" clip-rule="evenodd" d="M50.001,57.641c-1.105,0-2,0.895-2,2v15.998c0,1.104,0.895,2,2,2    c1.104,0,2-0.896,2-2V59.641C52.001,58.535,51.104,57.641,50.001,57.641z M57.999,53.641c-1.104,0-1.999,0.896-1.999,2v15.998    c0,1.105,0.896,2,1.999,2c1.105,0,2-0.895,2-2V55.641C59.999,54.537,59.104,53.641,57.999,53.641z M42.001,53.641    c-1.104,0-1.999,0.896-1.999,2v15.998c0,1.105,0.896,2,1.999,2c1.105,0,2-0.895,2-2V55.641    C44.001,54.537,43.106,53.641,42.001,53.641z M72.997,38.642c0-0.754-0.078-1.49-0.211-2.207    c-0.576,0.132-1.173,0.208-1.788,0.208c-4.418,0-7.999-3.581-7.999-7.999c0-0.615,0.076-1.213,0.207-1.788    c-0.716-0.134-1.451-0.212-2.207-0.212c-5.24,0-9.684,3.365-11.318,8.047c-1.766-0.672-3.678-1.047-5.68-1.047    c-8.835,0-15.998,7.162-15.998,15.997c0,5.919,3.223,11.074,8,13.841v-4.916c-2.45-2.197-4-5.375-4-8.925    c0-6.626,5.371-11.998,11.998-11.998c5.691,0,10.434,3.973,11.665,9.29c1.25-0.811,2.733-1.291,4.333-1.291    c4.418,0,7.999,3.581,7.999,7.999c0,2.959-1.61,5.537-3.999,6.92v4.381c4.656-1.648,7.999-6.078,7.999-11.301    c0-2.562-0.811-4.933-2.18-6.882C71.786,44.621,72.997,41.777,72.997,38.642z M67.005,43.914    c-1.973-1.424-4.388-2.271-7.006-2.271c-0.696,0-1.369,0.092-2.033,0.205c-1.156-2.068-2.762-3.849-4.679-5.221    c0.75-2.865,3.024-5.111,5.924-5.775c0.904,4.855,4.726,8.676,9.579,9.58C68.489,41.746,67.862,42.933,67.005,43.914z"/>
	</g>
</g>
</symbol><symbol id="41" viewBox="0 0 100 100" enable-background="new 0 0 100 100" xml:space="preserve" xmlns="http://www.w3.org/2000/svg">
<path fill-rule="evenodd" clip-rule="evenodd" d="M69.819,46.758L69.819,46.758c1.004,1.431,1.699,3.09,2.003,4.883h-0.004  c0.109,0.652,0.18,1.317,0.18,2c0,6.627-5.372,11.999-11.999,11.999c-0.279,0-0.648,0-1.062,0l3.584-4.412  c3.181-1.057,5.478-4.051,5.478-7.587c0-0.691-0.098-1.359-0.263-2l0,0c-0.89-3.447-4.011-5.999-7.737-5.999  c-1.6,0-3.082,0.481-4.333,1.291c-1.231-5.316-5.974-9.29-11.665-9.29c-6.626,0-11.998,5.372-11.998,11.999  c0,0.683,0.07,1.348,0.18,1.999h-0.014c0.764,4.548,4.088,8.223,8.438,9.505l-1.35,3.778c-5.903-1.831-10.331-6.991-11.116-13.283  l0,0c-0.082-0.656-0.139-1.32-0.139-1.999c0-8.836,7.163-15.998,15.998-15.998c2.003,0,3.914,0.375,5.68,1.048l0,0  c1.635-4.683,6.079-8.047,11.318-8.047c0.756,0,1.492,0.078,2.208,0.211c-0.132,0.576-0.208,1.173-0.208,1.788  c0,4.418,3.582,7.999,7.999,7.999c0.616,0,1.212-0.076,1.788-0.207c0.134,0.716,0.212,1.452,0.212,2.207  C72.998,41.776,71.786,44.621,69.819,46.758z M59.212,30.852c-2.9,0.663-5.175,2.909-5.924,5.774l0,0  c1.916,1.372,3.521,3.153,4.678,5.222c0.664-0.114,1.338-0.205,2.033-0.205c2.619,0,5.033,0.848,7.006,2.271l0,0  c0.858-0.979,1.485-2.168,1.785-3.482C63.937,39.526,60.115,35.706,59.212,30.852z M48.001,51.641H58l-5.999,9.999H59L46.001,77.638  l3.6-11.998h-6.599L48.001,51.641z"/>
</symbol><symbol id="42" viewBox="0 0 100 100" enable-background="new 0 0 100 100" xml:space="preserve" xmlns="http://www.w3.org/2000/svg">
<path fill-rule="evenodd" clip-rule="evenodd" d="M69.819,46.758L69.819,46.758c1.004,1.431,1.699,3.09,2.003,4.883h-0.004  c0.109,0.652,0.18,1.317,0.18,2c0,6.627-5.372,11.999-11.999,11.999c-0.279,0-0.648,0-1.062,0l3.584-4.412  c3.181-1.057,5.478-4.051,5.478-7.587c0-0.691-0.098-1.359-0.263-2l0,0c-0.89-3.447-4.011-5.999-7.737-5.999  c-1.6,0-3.082,0.481-4.333,1.291c-1.231-5.316-5.974-9.29-11.665-9.29c-6.626,0-11.998,5.372-11.998,11.999  c0,0.683,0.07,1.348,0.18,1.999h-0.014c0.764,4.548,4.088,8.223,8.438,9.505l-1.35,3.778c-5.903-1.831-10.331-6.991-11.116-13.283  l0,0c-0.082-0.656-0.139-1.32-0.139-1.999c0-8.836,7.163-15.998,15.998-15.998c2.003,0,3.914,0.375,5.68,1.048l0,0  c1.635-4.683,6.079-8.047,11.318-8.047c0.756,0,1.492,0.078,2.208,0.211c-0.132,0.576-0.208,1.173-0.208,1.788  c0,4.418,3.582,7.999,7.999,7.999c0.616,0,1.212-0.076,1.788-0.207c0.134,0.716,0.212,1.452,0.212,2.207  C72.998,41.776,71.786,44.621,69.819,46.758z M59.212,30.852c-2.9,0.663-5.175,2.909-5.924,5.774l0,0  c1.916,1.372,3.521,3.153,4.678,5.222c0.664-0.114,1.338-0.205,2.033-0.205c2.619,0,5.033,0.848,7.006,2.271l0,0  c0.858-0.979,1.485-2.168,1.785-3.482C63.937,39.526,60.115,35.706,59.212,30.852z M48.001,51.641H58l-5.999,9.999H59L46.001,77.638  l3.6-11.998h-6.599L48.001,51.641z"/>
</symbol><symbol id="43" viewBox="0 0 100 100" enable-background="new 0 0 100 100" xml:space="preserve" xmlns="http://www.w3.org/2000/svg">
<path fill-rule="evenodd" clip-rule="evenodd" d="M69.818,46.759L69.818,46.759c1.369,1.949,2.18,4.319,2.18,6.881  c0,5.223-3.342,9.652-7.999,11.303v-4.381c2.389-1.385,3.999-3.963,3.999-6.922c0-4.417-3.581-7.999-7.999-7.999  c-1.6,0-3.083,0.48-4.333,1.291c-1.232-5.317-5.974-9.291-11.665-9.291c-6.626,0-11.998,5.373-11.998,12  c0,3.549,1.55,6.729,3.999,8.924v4.916c-4.776-2.768-7.999-7.922-7.999-13.84c0-8.835,7.163-15.999,15.998-15.999  c2.002,0,3.914,0.376,5.68,1.048l0,0c1.635-4.682,6.078-8.047,11.318-8.047c0.755,0,1.491,0.078,2.208,0.211  c-0.132,0.576-0.208,1.174-0.208,1.789c0,4.418,3.581,7.998,7.999,7.998c0.615,0,1.212-0.075,1.788-0.207  c0.134,0.717,0.212,1.453,0.212,2.207C72.998,41.777,71.786,44.621,69.818,46.759z M59.211,30.852  c-2.9,0.664-5.174,2.91-5.924,5.775l0,0c1.917,1.372,3.522,3.152,4.679,5.221c0.664-0.113,1.337-0.205,2.033-0.205  c2.618,0,5.033,0.847,7.005,2.271l0,0c0.859-0.98,1.486-2.167,1.786-3.482C63.936,39.527,60.115,35.706,59.211,30.852z   M43.073,59.641c0.552-0.957,1.775-1.283,2.731-0.732l2.196,1.268v-2.535c0-1.104,0.896-2,2-2c1.104,0,1.999,0.896,1.999,2v2.535  l2.196-1.268c0.956-0.551,2.18-0.225,2.731,0.732c0.553,0.957,0.225,2.18-0.731,2.732L54,63.641l2.196,1.268  c0.956,0.553,1.284,1.775,0.731,2.732c-0.552,0.955-1.775,1.283-2.731,0.73L52,67.104v2.535c0,1.105-0.896,2-1.999,2  c-1.104,0-2-0.895-2-2v-2.535l-2.196,1.268c-0.956,0.553-2.18,0.225-2.731-0.73c-0.552-0.957-0.225-2.18,0.731-2.732l2.196-1.268  l-2.196-1.268C42.849,61.82,42.521,60.598,43.073,59.641z M50.001,65.641c1.104,0,1.999-0.896,1.999-2c0-1.105-0.896-2-1.999-2  c-1.104,0-2,0.895-2,2C48.001,64.744,48.896,65.641,50.001,65.641z"/>
</symbol><symbol id="44" viewBox="0 0 100 100" enable-background="new 0 0 100 100" xml:space="preserve" xmlns="http://www.w3.org/2000/svg">
<path fill-rule="evenodd" clip-rule="evenodd" d="M69.817,46.759L69.817,46.759c1.369,1.949,2.18,4.319,2.18,6.881  c0,5.223-3.342,9.652-7.998,11.303v-4.381c2.388-1.385,3.999-3.963,3.999-6.922c0-4.417-3.581-7.999-7.999-7.999  c-1.601,0-3.084,0.48-4.334,1.291c-1.231-5.317-5.973-9.291-11.664-9.291c-6.627,0-11.998,5.373-11.998,12  c0,3.549,1.55,6.729,3.999,8.924v4.916c-4.777-2.768-7.999-7.922-7.999-13.84c0-8.835,7.162-15.999,15.998-15.999  c2.002,0,3.914,0.376,5.68,1.048l0,0c1.635-4.682,6.078-8.047,11.318-8.047c0.755,0,1.49,0.078,2.207,0.211  c-0.131,0.576-0.207,1.174-0.207,1.789c0,4.418,3.58,7.998,7.998,7.998c0.616,0,1.213-0.075,1.789-0.207  c0.133,0.717,0.211,1.453,0.211,2.207C72.997,41.777,71.786,44.621,69.817,46.759z M59.21,30.852  c-2.899,0.664-5.174,2.91-5.924,5.775c1.918,1.372,3.523,3.152,4.68,5.221c0.664-0.113,1.336-0.205,2.033-0.205  c2.617,0,5.033,0.848,7.005,2.271l0,0c0.858-0.98,1.485-2.167,1.786-3.482C63.936,39.527,60.114,35.706,59.21,30.852z   M42.001,57.641c1.104,0,2,0.896,2,2c0,1.105-0.896,2-2,2s-2-0.895-2-2C40.001,58.537,40.896,57.641,42.001,57.641z M42.001,65.641  c1.104,0,2,0.895,2,2c0,1.104-0.896,1.998-2,1.998s-2-0.895-2-1.998C40.001,66.535,40.896,65.641,42.001,65.641z M50,61.641  c1.104,0,2,0.895,2,2c0,1.104-0.896,2-2,2s-1.999-0.896-1.999-2C48.001,62.535,48.896,61.641,50,61.641z M50,69.639  c1.104,0,2,0.896,2,2c0,1.105-0.896,2-2,2s-1.999-0.895-1.999-2C48.001,70.535,48.896,69.639,50,69.639z M57.999,57.641  c1.104,0,2,0.896,2,2c0,1.105-0.896,2-2,2s-2-0.895-2-2C55.999,58.537,56.895,57.641,57.999,57.641z M57.999,65.641  c1.104,0,2,0.895,2,2c0,1.104-0.896,1.998-2,1.998s-2-0.895-2-1.998C55.999,66.535,56.895,65.641,57.999,65.641z"/>
</symbol><symbol id="5" viewBox="0 0 100 100" enable-background="new 0 0 100 100" xml:space="preserve" xmlns="http://www.w3.org/2000/svg">
<path fill-rule="evenodd" clip-rule="evenodd" d="M79.996,43.642h-3.999c-1.104,0-2-0.895-2-2c0-1.104,0.896-2,2-2h3.999  c1.104,0,2,0.896,2,2C81.996,42.748,81.101,43.642,79.996,43.642z M72.14,30.33c-0.781,0.781-2.047,0.781-2.828,0  s-0.781-2.047,0-2.828l2.828-2.828c0.781-0.781,2.047-0.781,2.828,0c0.78,0.781,0.78,2.047,0,2.828L72.14,30.33z M69.192,45.937  L69.192,45.937c0.912,1.088,1.63,2.34,2.113,3.705h-4.387c-1.384-2.389-3.961-4-6.92-4c-1.601,0-3.083,0.48-4.334,1.291  c-1.231-5.316-5.973-9.291-11.664-9.291c-6.627,0-11.999,5.373-11.999,12h-3.999c0-8.836,7.162-15.999,15.998-15.999  c1.572,0,3.089,0.232,4.523,0.655c2.195-2.828,5.618-4.654,9.475-4.654c6.627,0,11.999,5.371,11.999,11.998  C69.998,43.158,69.705,44.601,69.192,45.937z M57.999,33.644c-2.212,0-4.215,0.898-5.662,2.351c2.34,1.435,4.285,3.453,5.629,5.853  c0.664-0.113,1.337-0.205,2.033-0.205c2.125,0,4.118,0.559,5.85,1.527l0,0c0.096-0.494,0.149-1.004,0.149-1.527  C65.998,37.225,62.417,33.644,57.999,33.644z M57.999,25.645c-1.104,0-2-0.895-2-2v-3.999c0-1.104,0.896-2,2-2s2,0.896,2,2v3.999  C59.999,24.75,59.104,25.645,57.999,25.645z M43.858,30.33l-2.827-2.828c-0.781-0.781-0.781-2.047,0-2.828  c0.78-0.781,2.047-0.781,2.827,0l2.828,2.828c0.781,0.781,0.781,2.047,0,2.828C45.906,31.111,44.64,31.111,43.858,30.33z   M30.003,53.641h39.995c1.104,0,1.999,0.896,1.999,2c0,1.105-0.896,2-1.999,2H30.003c-1.104,0-2-0.895-2-2  C28.003,54.537,28.898,53.641,30.003,53.641z M30.003,61.641h39.995c1.104,0,1.999,0.895,1.999,2c0,1.104-0.896,2-1.999,2H30.003  c-1.104,0-2-0.896-2-2C28.003,62.535,28.898,61.641,30.003,61.641z M30.003,69.639h39.995c1.104,0,1.999,0.896,1.999,2  c0,1.105-0.896,2-1.999,2H30.003c-1.104,0-2-0.895-2-2C28.003,70.535,28.898,69.639,30.003,69.639z"/>
</symbol><symbol id="6" viewBox="0 0 100 100" enable-background="new 0 0 100 100" xml:space="preserve" xmlns="http://www.w3.org/2000/svg">
<path fill-rule="evenodd" clip-rule="evenodd" d="M43.945,65.639c-8.835,0-15.998-7.162-15.998-15.998  c0-8.836,7.163-15.998,15.998-15.998c6.004,0,11.229,3.312,13.965,8.203c0.664-0.113,1.338-0.205,2.033-0.205  c6.627,0,11.999,5.373,11.999,12c0,6.625-5.372,11.998-11.999,11.998C57.168,65.639,47.143,65.639,43.945,65.639z M59.943,61.639  c4.418,0,8-3.582,8-7.998c0-4.418-3.582-8-8-8c-1.6,0-3.082,0.481-4.333,1.291c-1.231-5.316-5.974-9.29-11.665-9.29  c-6.626,0-11.998,5.372-11.998,11.999c0,6.626,5.372,11.998,11.998,11.998C47.562,61.639,56.924,61.639,59.943,61.639z"/>
</symbol><symbol id="7" viewBox="0 0 100 100" enable-background="new 0 0 100 100" xml:space="preserve" xmlns="http://www.w3.org/2000/svg">
<path fill-rule="evenodd" clip-rule="evenodd" d="M43.945,65.639c-8.835,0-15.998-7.162-15.998-15.998  c0-8.836,7.163-15.998,15.998-15.998c6.004,0,11.229,3.312,13.965,8.203c0.664-0.113,1.338-0.205,2.033-0.205  c6.627,0,11.999,5.373,11.999,12c0,6.625-5.372,11.998-11.999,11.998C57.168,65.639,47.143,65.639,43.945,65.639z M59.943,61.639  c4.418,0,8-3.582,8-7.998c0-4.418-3.582-8-8-8c-1.6,0-3.082,0.481-4.333,1.291c-1.231-5.316-5.974-9.29-11.665-9.29  c-6.626,0-11.998,5.372-11.998,11.999c0,6.626,5.372,11.998,11.998,11.998C47.562,61.639,56.924,61.639,59.943,61.639z"/>
</symbol><symbol id="8" viewBox="0 0 100 100" enable-background="new 0 0 100 100" xml:space="preserve" xmlns="http://www.w3.org/2000/svg">
<path fill-rule="evenodd" clip-rule="evenodd" d="M43.945,65.639c-8.835,0-15.998-7.162-15.998-15.998  c0-8.836,7.163-15.998,15.998-15.998c6.004,0,11.229,3.312,13.965,8.203c0.664-0.113,1.338-0.205,2.033-0.205  c6.627,0,11.999,5.373,11.999,12c0,6.625-5.372,11.998-11.999,11.998C57.168,65.639,47.143,65.639,43.945,65.639z M59.943,61.639  c4.418,0,8-3.582,8-7.998c0-4.418-3.582-8-8-8c-1.6,0-3.082,0.481-4.333,1.291c-1.231-5.316-5.974-9.29-11.665-9.29  c-6.626,0-11.998,5.372-11.998,11.999c0,6.626,5.372,11.998,11.998,11.998C47.562,61.639,56.924,61.639,59.943,61.639z"/>
</symbol></svg>